<mxfile host="app.diagrams.net" modified="2023-11-01T19:03:52.466Z" agent="Mozilla/5.0 (X11; Linux x86_64) AppleWebKit/537.36 (KHTML, like Gecko) Chrome/118.0.0.0 Safari/537.36" etag="Mu49lGqvTau4gpsFcktE" version="22.0.8" type="device">
  <diagram name="Page-1" id="w1QIRIcfQGthrRpWw769">
    <mxGraphModel dx="808" dy="501" grid="1" gridSize="10" guides="1" tooltips="1" connect="1" arrows="1" fold="1" page="1" pageScale="1" pageWidth="827" pageHeight="1169" math="0" shadow="0">
      <root>
        <mxCell id="0" />
        <mxCell id="1" parent="0" />
        <mxCell id="wr6T2VF4gnIS3RxcP0Pz-6" style="edgeStyle=orthogonalEdgeStyle;rounded=0;orthogonalLoop=1;jettySize=auto;html=1;exitX=0.75;exitY=0;exitDx=0;exitDy=0;entryX=0;entryY=0.25;entryDx=0;entryDy=0;" edge="1" parent="1" source="wr6T2VF4gnIS3RxcP0Pz-1" target="wr6T2VF4gnIS3RxcP0Pz-5">
          <mxGeometry relative="1" as="geometry" />
        </mxCell>
        <mxCell id="wr6T2VF4gnIS3RxcP0Pz-10" style="edgeStyle=orthogonalEdgeStyle;rounded=0;orthogonalLoop=1;jettySize=auto;html=1;exitX=0.5;exitY=1;exitDx=0;exitDy=0;" edge="1" parent="1" source="wr6T2VF4gnIS3RxcP0Pz-1" target="wr6T2VF4gnIS3RxcP0Pz-11">
          <mxGeometry relative="1" as="geometry">
            <mxPoint x="205" y="350" as="targetPoint" />
          </mxGeometry>
        </mxCell>
        <mxCell id="wr6T2VF4gnIS3RxcP0Pz-1" value="address" style="rounded=1;whiteSpace=wrap;html=1;" vertex="1" parent="1">
          <mxGeometry x="130" y="220" width="150" height="30" as="geometry" />
        </mxCell>
        <mxCell id="wr6T2VF4gnIS3RxcP0Pz-4" style="edgeStyle=orthogonalEdgeStyle;rounded=0;orthogonalLoop=1;jettySize=auto;html=1;exitX=1;exitY=0.5;exitDx=0;exitDy=0;" edge="1" parent="1" source="wr6T2VF4gnIS3RxcP0Pz-3" target="wr6T2VF4gnIS3RxcP0Pz-1">
          <mxGeometry relative="1" as="geometry" />
        </mxCell>
        <mxCell id="wr6T2VF4gnIS3RxcP0Pz-3" value="transaction" style="ellipse;whiteSpace=wrap;html=1;aspect=fixed;" vertex="1" parent="1">
          <mxGeometry x="30" y="110" width="80" height="80" as="geometry" />
        </mxCell>
        <mxCell id="wr6T2VF4gnIS3RxcP0Pz-7" style="edgeStyle=orthogonalEdgeStyle;rounded=0;orthogonalLoop=1;jettySize=auto;html=1;exitX=0.5;exitY=1;exitDx=0;exitDy=0;entryX=1;entryY=0.367;entryDx=0;entryDy=0;entryPerimeter=0;" edge="1" parent="1" source="wr6T2VF4gnIS3RxcP0Pz-5" target="wr6T2VF4gnIS3RxcP0Pz-11">
          <mxGeometry relative="1" as="geometry">
            <Array as="points">
              <mxPoint x="430" y="340" />
              <mxPoint x="280" y="340" />
              <mxPoint x="280" y="342" />
            </Array>
          </mxGeometry>
        </mxCell>
        <mxCell id="wr6T2VF4gnIS3RxcP0Pz-13" style="edgeStyle=orthogonalEdgeStyle;rounded=0;orthogonalLoop=1;jettySize=auto;html=1;exitX=1;exitY=0.5;exitDx=0;exitDy=0;entryX=0.5;entryY=0;entryDx=0;entryDy=0;" edge="1" parent="1" source="wr6T2VF4gnIS3RxcP0Pz-5" target="wr6T2VF4gnIS3RxcP0Pz-12">
          <mxGeometry relative="1" as="geometry" />
        </mxCell>
        <mxCell id="wr6T2VF4gnIS3RxcP0Pz-5" value="address notification system" style="rounded=0;whiteSpace=wrap;html=1;" vertex="1" parent="1">
          <mxGeometry x="370" y="110" width="120" height="90" as="geometry" />
        </mxCell>
        <mxCell id="wr6T2VF4gnIS3RxcP0Pz-9" value="email notifications" style="text;html=1;align=center;verticalAlign=middle;resizable=0;points=[];autosize=1;strokeColor=none;fillColor=none;" vertex="1" parent="1">
          <mxGeometry x="290" y="310" width="120" height="30" as="geometry" />
        </mxCell>
        <mxCell id="wr6T2VF4gnIS3RxcP0Pz-11" value="users email/phone" style="rounded=0;whiteSpace=wrap;html=1;" vertex="1" parent="1">
          <mxGeometry x="145" y="320" width="120" height="60" as="geometry" />
        </mxCell>
        <mxCell id="wr6T2VF4gnIS3RxcP0Pz-12" value="1. set up websocket events for each notification type.&lt;br&gt;(These would be function that get triggered based on chosen events.)&lt;br&gt;&lt;br&gt;2. Can access the list of registered addresses and corresponding user details.&lt;br&gt;&lt;br&gt;3. Triggers the send notification anytime a registered event occurs on the users address." style="whiteSpace=wrap;html=1;aspect=fixed;" vertex="1" parent="1">
          <mxGeometry x="550" y="170" width="230" height="230" as="geometry" />
        </mxCell>
      </root>
    </mxGraphModel>
  </diagram>
</mxfile>
